<mxfile host="app.diagrams.net" modified="2022-03-07T06:10:06.692Z" agent="5.0 (Windows NT 10.0; Win64; x64) AppleWebKit/537.36 (KHTML, like Gecko) Chrome/99.0.4844.51 Safari/537.36" etag="MB96R8PIUVs-k39SgP7S" version="16.6.6" type="github">
  <diagram id="PYREdzQcAVAET-4dGrBX" name="Page-1">
    <mxGraphModel dx="868" dy="460" grid="1" gridSize="10" guides="1" tooltips="1" connect="1" arrows="1" fold="1" page="1" pageScale="1" pageWidth="827" pageHeight="1169" math="0" shadow="0">
      <root>
        <mxCell id="0" />
        <mxCell id="1" parent="0" />
        <mxCell id="eAWggMRmdG7QYBiaw9UV-1" value="" style="shape=image;verticalLabelPosition=bottom;labelBackgroundColor=default;verticalAlign=top;aspect=fixed;imageAspect=0;image=data:image/png,iVBORw0KGgoAAAANSUhEUgAAANgAAACgCAYAAABuUaJBAAAgAElEQVR4nOy993scSXam+56IzCxv4UGy2U2yadrNtHo0RtJKWnf/4/s81+zenZ2VNEaa1rZnG3oDD5RB2cyMuD9EZhmgQAIkwAan+c1UAyhWRYY7EccfsdZaThlxHBOGIUEQoJQ67ebPLR48eMClS5cQEUTkx+7OK0O/3yebzZ7oO4O4x+21L5BAiENhtbRKrbyAsYqMaA7Nnk1eYsG2GD75Cv3wT+i4BTYGZcAMsUGRePFXeO/8ElT58IPtEfvxBMtljOHBgwfkcjmWlpae+dmfzu5/BUg32U+JuF4UWnnk80WerD1BxFAvLBDgzyYuAAErFisCBCi/COI7osMCGiSDIQtBGfDOrO8iQrFYZH19ncFgcORnRN4Q2KlCaw3AGTAFf3EQUeQyBTI2y1u1S3jaEYSYo75hsESY2ILJ4hXeQpffAsmDgRhFqDNQXkTPXcLin2n/i8Uinuexu7vLrPPU7QE5QzL/CaLb7VKtVkeE9gZHQ6GYzy9Qea9I4AekR9JRl79BiIYQ3ntA4/Z96HQp5kNyi1dQhT5GW5SK0eVlCIogZ3uDeZ7HpUuXePToEbVa7UgW+Q2BnSJqtRpa6zcs4jEgCAEZMoGPxSIJY2hl/PskVGjp33nC09/9gWhzD41mT0KCpSxX/uPPCZbngD5mZxsV9kBnsQSARcbkm8hwL78+IlAo5MlkAvb29lhdXcVag7Vj9nAw6L9hEU8TW1tbGGPesIjHhBKN4KPwEUhesze/bXZo/ekz9NNdcqGFOCITCv31fba/3cZKHfIXMLk5or0nQJ8IS4zFjggs0ZSIOfziZGtmLSilmZubZ39/nyiKmNSUDAZD7ty5+4bAThO1Wg2lfloaxNPB8+fLdntE6zso4whGG4sYQyaE7qMN4jAGHaCrdRhazH4bjwiV3I9j8jmdwy89RIvFInEc0+12EXG3VxRFbG5uks/n3hDYaaLdbhPHb26ws4HFCO5ljCMZEUQLsY2JjSHGQ4ISqjTPoNlE4g5CjAVMQmqnDd/3qVarbGxsEEUxADs7OwyHQ1ZWVt8Q2GmiUCiglHpzg50BJJ8jWKgTiU00IY50umIorC7h5fKYRFWvilXCYQ/T3IQoxFjBKSdTY9rpol6v0+/3abVabG5usL29zdzcnLMDn/rTfsJ4Q1xnBynmqX50E79cJIoiQhMjWuPN1ym//y4m47nNbDVkChTqVYbNXUw4TG4wphjFU+uXCL7vs7S0xOPHj9na2mZ5eZlyuey0jaf+xJ8wms0mhUIB3/ffENppwJmSHHH4muL1d8g+WSOuFhliKc7VuXjzbXIXl4iVSthGAI2uLGHDkKizRpDNEts8xnqclmOREwMcwSqlqFaro5urVquO1v8NgZ0iKpXKGzX9acFO/yoK2v0Og8UKV3/zCRJoUAqV87DaojlwQ0keXV7AbH8FvTI6m8WOGLYjrdkn6+KErK215uLFi+RyOUTGnMwbFvEU0Wq1iOP4jZLjlKEB9vs0f3jAwsVVdK2IrhTQpRzieSg161BTiM6iggL9xpZTeKizkMAcoSmlKBaLaK2n/G/fENgpYm5u7g17eMqIrYHQ0NvaQeKYUr2O1QpjLMYyUng4TMy7taAy6PIlwijE9jYRjmMQOBnSwzR18D7o3P6GwE4Ru7u7WGvf3GKnAjvyjIiabZ7cuUf9rUtIEDhbsZKRfDb5nenfNTaYo1Cp02tuQNzltNjD4+INgZ0igiAAxqfZG7wkRLDWsPngIdlyieyFBVCgEl2GyMEbafIvBaJQaHRpgSgoMNx9DKb/SofwhsBOEamT708pBu7MIIJYiLebdPb3WXn3KnjKCWROozHB8h1kExWIJIZpAXKUSgsMGpvE3TbWWqLYYK1y8WFWcfrMo8ObnXCKOCo26A1eABboD2k/eMLy6ipeuTB628pBk7EceIHFYka+Gz4SlMgUigzaO9jh/pl4dczCGwI7RZRKJUTkjfx1GogN3c1tes0WxYU6Vk/5xD8XgsFzvh1Ox69zBPVVov4u9NdQyoDEWHEuWGe1Ym8I7BSxvr6eeFW/Cbp8WdjugK27D6hceQspFlKbs/u3Y7Ug07+Kh8lUyVfrtPe20HEHYYicsdLjDYGdIhYXF/A8D2vtkYGDb/AcWCC27D9ZI+sHFBfqiUh1sgm1qAnDctKseOjSMl5QYtjedrk87FhpchY4YwL7ae2yZrNFFMfJXz+tsb8M7IG/okabrY0N6tfeQedzSR6Ok8EA0SEdo8J6NYLSKqbVgOHQ2cswyc/Th3cmlm0Eg2Dl9NwrX4ftmi3kQSmsCCZZMCtwRBqXNzBOgRcz4bMXxjQePKKysoSulwAXhHzSKTyoF0x0ixgr6FwJ4xUIGzv4de2in8UbZZw6TRPLGd1gcmRk6kvBznj9WJjRlzCKXGqWJKpZcNnE3uAIyMQPayEy9Hf2aDUaVFeWML4H6pCx6zBmrEVKUJNQgBYQ8QlqSwy7DRg0MVF0ZnvJkzNoWKx7nSVvex4RJ+yhJEGBWpLkNy9wAv8UEMkEIRgLg5DdOw+YW1lB53NE1oDSR2fCeQGIsaA0Nlchk88wbO3hL86f2fqombfCS94OWiBQatznU24frDvxztmmLZadmt4TBUro7ewyXN+CkVz2BpNI7MVuO1hL48EjvEFI+cIKVlKD/SkvcuICIuKhy28zDC1x+yFC+GLNJV47R2mNPTuM3TU888sv9Ey392ODFYPIEfLjMW7+UXuS/hw7VoIg1p7q6fayaDZblIqlkdNnNpNl98l9qvWy853jjZfHJGTijIy7fXY3t3jrnctILsCIy5142rCSCi+CZAvkS2XivYeQX0Iy2RcyrzzrO97db789MobpRYU9Yy1xFOF53tHULceX0qxALOPsQH4mwFcepXKJQqUy2rw/NubrdbSIYxWVIH5AJpcj7nUJshmMBWvsuenvj46UdY5iOk/WKZSKeEtzWM/FUx17lk44ne6xlsjG6EKRqOFj9xsEQQnwxmnkjsHaP48gvTiOnXE0vWrk6NRZx4UxBmMMURQd2QFJPDWP9Sxxri9Y52HdbjZpbmxz4+pViuUy54VXbG7vULyQRWmNNQbrC/nVBfprD/ALRWIvwFOk8euvzF3nZfC8Q9Za++JGdevWtL25xe7TdS59+D5x1jtC82ax5vCMPat3z+qVBRQavCq5C+/R2/gaSnmsXsJoi37Ozky5qMPvTcO7/rMPjtejE8CZFgyi1ezogBnhOyeBiUIefPMtpULR8e/m1arqnNbr4LuWYpr0hmSylUDGRyFEjSZ6bt6ppklu9bPQMJ0yjks8BwntON8TQIWGzsOnFBbm0LXy+PY/1D4j08fU+8fq3TP6jUZ5Ofxsns7WOtmFEiLZUeNW7BEHoR0RVDpW52Aw3XOv2+4kV6KD0onVRmQq9PlEnbaGOI7R2gM7Y/Mnbc46BY5oEbEGAbQoouGAbq9Lv1zG67sEk68SR/W61+tTHA4BRi5T2hhMkKGzt0s5k2Wg9cRsx/y4toZnY1YA4SwMh0OUUpiJg+44N5uIMHi8QdhsM3ftHcJ+D4MlDk8goJ8CFIZMdp5+Zx3d2YJgCawgxIlocrjfURTheTFKqWceLF6mmD/49SkFxIuIYXFsiEPQgX9kA2k8z7FhrVNqAHYwIIxjspUiQS57xmn+D2P2xWPxtE7kToWfxoZZSxgv0H30CM/GkC9grKAAdXSlg3OD47CI4GLhZp3gsz5vjEErhWl1eLK2zuo7l/GLBazntK/2CA3Y2cXYWbBZilGfsLVGfnER8TKIDDEyeSCOoZTC8zRKPbsOgSd69gl1OJjt+BCrEK1BqyPbOGn71qYKXYijmDAK8TKZEylLTgtHHRmFYgFRCowTkm0iJfuVCvntLWy/C5UyWgnWgn7O4pwHHOcWmgwwfR4RjP49NvTXt8l4PvmLyxD44wP3iCbONIhVNJnyHL1Wk7izg19bwRCAzCKvw+M+Ct5Rg3kp22jCQz2LiE7ctjjZRWyaZMTDz+UmNvKPj63tbXL5AkpJQvjpREC+XKK3vUVmbgF8hYEplupFMTWPk4s9SRjp+/ZkipUz2dDWwjDi6Xc/YPfaXHz/JpIL3ECS6RA4jfoMJ0QMOktl6S2irYdQLhHpCoJFiaAmDvKT7DbvTKwy1jiZ6Rgsw3Exvr8g7A1RykdEn4rW84U6MwNz8/MoPUNuNQYKBQYbm2SaPVRVgTbutpvV+Al219TYp6nt8K9nMFfH1iBaFwAZD4Zsf3OHbKtD8foVVLUEB1Tir5y40ihOfCSTw8tqhs0NVDWD9TyseK57llGw51E4uPavpdWzPxgQZDLn5N4ao9FozNhw1hnIczkK80vY7S2wxnmIH+nhcpKRnbdZmI04ipHIsn/3ETtr61RvvUtmcR6OEFFeKUQAD8QDCaAwT6fdRPX28JwyP7lV3QKdxIX9HIzuZLDAoD+gUMhzBob+l0K57GoCT2mVSBZGKbxyGRl0Mf2+K90zwcdPv9Qz/m36daSm6ByYBtN5iI1BGcvu93fpbGxz6+OfIfXSkR5EPwbcrekIzQY1MrkcYWsdCYfOfxGDxSRxIsdn7c/ZFj0aiU0SrGW/s0+tWjt3ZqR+vz+qDzbKlweohOeRbACFPN1mAzPLfPGiSO0GB/08j3r/FWBSoxh2uzz96jZeq8fyezfQC3V3c50T+rJAPOLMNXhF8vVlrAmx3S2wPayJkwotz+ERD+C1ITBg5OM76A/IZDLnZoFSpIQ1rV0SrCgQ47xbyzUGrS56eLYOwNYY4jA8whH07JGOPx4M2bt9F9MbUP7gBnqughGLSjfqOUmtMLJtWlDWgJfDry0Stp9A2MI5VwmjmLFjtvvaEFjqPG+imDCKCPLOfpd6Yp8H5PP5Q4ZHmDjwxKIqJYgNdPpH3ir24B8H37AHP5t8KB5Crw1723Qe3KPx5DHG2pGT9KtAbIxjoIwlbnd59MU3DDtdLn7wHlLIIJ5OlDuTaqsfH6PeJJRjJECyVYwoBo0tlBmgR87Jxyeb16r4g1jot7sEmQA8xwmfJzax1WqNMkuNYVEjr39FnBEKlRLRbgOvmANfz7SJpFqrqTcmYVwIlVEWFQ+RsE+0t0d/fZ2855H3PcJhjJW3AZBTqk38LIjIyGc0bLbZ+f4emW6f+Y/eQyr56c+lh9A54EKm1O/iivWBQukiurRKd+cJmeE2KucDQTKPx+v4a3ODKQXWWPqdLtlcznmkJxvzvGTRXViYn218nPhTiSK7uECj1cR0OjMP8dGCC6Oqju6N1I/R/a4GIXpnC/v4Ac27d+l2h+QuX0ddex9ZXB4t7quaHWssHkLUaHPvy6/B91j+xc/xq+Xpz50TjmMWps408fAKK+QKReLGOtho4hPHG8Nrc4MZHCF12vv4ifz1Mt4mZ4H19Q3eeuut5xC8AU+TKRYIG20ypaKzRk4qJhizLFMtWZDYQrdLvN9m2OugbISfDaheehtyBdC+09oNNShBjxo4u8lKbyQxhrDd4cmX35DPZlm8cQ3JZ6Y+e56JK4VMHGgimqBYp7PdINvbQecWwGae+f1JvBYEZnFusVqg1+tSrFYOsWHngdRqtdpzPpG43XhCdq6KXduBYQh6xoJZRr6XIJhhyKDdItrZwut18DIBulwhmFuFbHb0JYtJkmpalBJsbDnKHe40MFoHazG9Aes/3CWLYvnaVVQ2GMmIr96h7eUx8kXP1AiqK8R7j9Be1qUxOCZeCwKDJLzcQqe1T2Vh3r054fpzHrjE/f19isXiIafXQ+QvCr9QwMgeUX+A8hXKm+GyHBpsFGH3u/Q31hgO+xQWF/FWViAIED8APV7ssT5EJS5kZw9rXZxWr9tj6+vvyCIs/dVHkE2cnY2dUNEdkL/OOUZrprP4+QVMe5Nhe4egmiepWvZcvBYE5tzUDDaM0FYIsgH2nLGH4DzKRcR5i09s/INsXvJhbLlAtLtDNrsMKsmgFEcwjDDNNlGvTxxGGIH8fJV8LgeFEngeRuEMnhOspSRKjFRreBpJhyYPhxhLiNtafqLMlMhgd5o8vH+PuWqN+bcuQdafcs9K/xhJL+nanTM6mzlXktjIvAKquEpvdwM/0yD251AGRLkCE3LEXL8WBAYWhWHQ7xF4Pn7gY8Umlonzo6dJUy9Mx1DJyMZgkpg2SXzfdLVE8/ZDsvUKeD5mMKS322C4tQOxoVivka2XkEIOPI31fOfOw4SMJtOPkglfxtPYxCMfPNxGC5P3PGMQUcSNNmvffMvKyiqVd9/GBjqRl1Ot3CwnWXe7niNHjqMPInHiiRFFprSKbrcI9/dQc/OAAXHxk0dxUK8JgYHFpSDwtMbT3nk7/ACnpq9UKi6q+eDOt+5GiUnSaovFZH0yWR+ePsIGAYP+AKUzFKt1vGoJyWWdGh+VZNI8wY48pc2rRm25RNQeSSJVC8O1LR599z2F+TqVq5cxOvE6T5Uep5h49sdEyuGK1hQXVmhvPCUYdCGbATRidaLeP6yWf20IDGA4HOB5HkEmOHfsIUC9Xk8Iy7pLK/kd6yKXbRyjJblh9vdRnQ4a6DZ2yS4tkLtwAYICZPNjV6LRQE+4VSXxPDCntMUtiDFkRKGsobe1y9r9++QW6sy98xZkvKksX38pxJWyyAqIraAzJTKlKoPGE/KLb+OydzjSmsVLvUYEJgz6fXzfR/v+uYkBm8TOzg65XA7Pm5jW1B3IxhCGmE6XbnufuNWmAHjlEhktqGIZanWQCWXHtGaEF+L3XlahkNinrXVbidjSWt9g/e49aqsr1C9fZGgNvgii1TlclZdDSmACGLFYG+AVqgwaa9h+B/Gzjtc9YGZJ8foQmLUMw5DA886teXx8g6VcVeI82RtAs+0UF2GEX8qRvXgBL18Az8NubsJuA+ZiCJLgiFQlOHWDneDeTlJ3pym8XwYj7aS19LZ2eHT7Oy6+9Rbly5dcirWJ3JoHCex8GFBeDpNHmxEQv0CmssSw+RjPjyG3NKoxdlC3+JoQmGBjIRyGZDL+qBiAOWMVh2Fi0pIZNpKK6GPrTrqBuu02xXwWsTGEQ+h0sPs9mo0efiaLVyigijm8YhHJ+KM2vUqFeK+BCoeI7yUW9Ck13Oi3yQ189MYVJ3yLJN4Hz89aYibaM9Yg/RAlAtnAzbEV4rUtdu/cZ2Vlhcrlixj9fJX75Py8joQ22ffU9CEiqFwF1V7D7m8j+WWUTVIfHiCx14TAwIQxw+EQv1Jxb1gZRZee1cLFjAXXVNtsgDQNinv2+LYpKIvqtoj6faL9fcJWm3yuSGVxCUpFJOMRasGIOEtVqubLZ4kCH2k0Ez/LSYKYHOH49+eOeRQsd7KwGLEWekPu3/6Oi5ffIgh8CGP6WztsfPMdCxcukL92GRsosHYqZd4sUnumCPkaUJzM/N1ilCKoLzHY2ybb24NMBiTgYF2X14bA4ihiMBiQLxYPCP9nB1djysGTCW1S4tHutrDFhiFxv0/Q2cPuDhCdxcuUCK5cwhZyzj6lBBR4ic0EJsYgglcp0Xz0hHq1doDA3DPOGiNOILb07j3GRBF+pQRhxODuYzafPKV+4wr55SXQjIoM/iRTgYtBKwu5eWRgsdv3kNV3mZWu9PUgsGR/xWGI9r3EriSHakCdNnzcBFlcPCvWJUCJ0ajYIHEM7T2G2xvstvYItcfyW1cI8gXI5ECEWAlxMu0KDnvIJ2HoulzEFwWtfcjnRgMbBW6+SJGsE8CNEaJWm+aTdVbev4YgdB6tce/uXd754BaFi8tjriFRxxsTvzaeGacGK1gUqt9EBi2G4pExgujD6/N6EBgQD0OnIMjnRwL1WV9iikkBHzCgoggz6BN1O4TNBqbfpVArsTJ/hYFk8Wtz2IQtE3GFTENR6HRnWjuKGhkpQkQgm6G4skSv2SQzX0e8aV5+0of7tMdtgNha1CDk/te3WVqYo1Cfo72+yeaDh7z94XsUlhdG867SYMo4TjJj/cQIDIPtN+jubJDLF5D5FVCZmYvz2hBY2O2RzeYQpUcqhrP2l7K4dM3WWrxhiNnvEe3sofoNdMHDm6tA5QKx8tDis3t/jaWyRWmd9M95m6jktk0XIE767E2JRwKVMv3OPnFnn3y5lHg7TLNgxx+ucBL9YWRihnce4vWGZG8t07r/iMbWNqs33iW3uoixxrleJaeNETvhtfIaCFOnBRvDoIndvoOfW0bKq1gJEPGYpd5+bQhsv9klnymOZXang57wyZnAs9Y7ocu0GZ28aW2EtaCUNyIsHcfobhezvUur1UYyPrpcJDt/AVV0KnaURotzrq0s1BFPsMaMc9MjjjNPeUQYh5Co9D8WUEguT5DNoDbXkFIl+b4hEmfGPFyK9oiksYDVmkgr59toDVMZgg7IgMpY/FaPJzvbXHrvFuH6Ltu721y4eY3MXM3lirdq6oAWQJRyY03aFJ6Rpu/c0+DYVXr8jkxrim2EbT1i0NjC5C+Qra1AkCddv1EzE3htCGzQH1IpVw8rOGZxJ8/ko+xhE5OrKO3ejYfIIET6fQb7HXqNPTKiKS/PQ6mAzXhYCTCTWaFwstJOY5fVfNalDYCRwDt6jjDj74kBaUUun8M2d12B7iAzQYQn0Oy43e+cUE1S4FtGRXmmYSy2N2Dv+/sslCsMWm2am5tcvHGNYHFu3GRa6CC5FwWVEBUvb8z+0TG7/5KM1loLdohpr9PZWaNYrhEVV8HPgRydvRrOPYGNySAKI4r5wnifvdCaWqyY0UYbsW3GuKu/PyBqtZD2PjoMCXJ5grcuYbIBUeCDkqRq/OHNLiLkcrnpiOYXKBCoymW6m2tkOi10UHf2rFNSm44urmT+LCCxYbi5g98bkEfzdO0h8x/dJFien9nGeGwv3Z3XAsoYIGbQ2MDrrVFYvIApLEMo09nDjljnc01go/1pLf1+j6BSgHh8B508iM8iJnY54W3sNtkwRlot+utP6Q36ZKpVMtUKFApJvJXvcsmnRG0Zm7cPPt5aR6ypofhFgtS8AK86R9Rto8sl0I7ATovDmrLrGIttddn+9g55L2AjarD68w/w56pYJZOMz08OFuv8OG1MuH2PYXsHb/kKqlAjxsNZSZ+Pc05gjqc3sXG8vlL0ez101sPzvRc4RROlSDSATo94v8tgv4MWISiVySwsIKUiZAKs5yHWJT+ZadBO2buJPgz6/bHK+kVPeBH8Wo3WnduO0P3cqaVGSGWlUf/6IbtffMP+xjZmdZGF92/gzVfBO/9FKc4SFhdEaqIe/Z0H+ESUVi5hs3WMdfXezOtNYMl2FiE2hv1Wi2w+i4jw5P5D5i8sUq6VGTsyzdh+k0XSrUvBZOKQbqeJ1+oi7R4eQrZSROo1TDY3ohclFsEkfwtRqgwA9IhwDj+zWCzh6gq/BDmIRrI5CqUCYaOBX5yf8iU9GSb7kszpyKnO0l3bYu3OPeYWFpj76BbMVxhqIZNoC0ci4rHwY/GMkxL1szt7WBd28Nh0bIpYQ7/bZtjZI29a+HOXiP15lHij9U/ZdnmGvGI5hwRmMKTieCyCMkK/2UX7AWYY0dnYYXGhikQdIAJbAKvdqavTjEsWiDAmQgNmvwWNNnGnTxxrVDZHbmEZKWSxGR/xvEQdbpP/p8yRi+uamqRn8Ex7jT2KpeLLXTdpDbTaAq21LephiGRUspDHvVkExEMrHxPZiexSLlcHFqL2Pvf/+CfyFxdZ/NUn6GIBk6rcn9f/Q/vJ4limH0NlH4GNQHyw3tS5Oj6ok+xcjBk7DxfE66BG0eDEMbb7hHBng0y+gjd/AzJFNP64KqkVpxtOv2Nh5M2ZpNmORWj1wvNHYJMnUpr3MAojvHyWRnuPXC5DUSl49Bizu4mQRSp1mJ+HUhlRnpODBh30cEjUbtPaa5DNZMmVq1SK1bF2zneZl4wwkWAGDp6Gx90ytXrN1WdO3IhebLM5w62XLaF1k7Cxh79Qc+M6CSzMvMFEsHHMzs4W/tIcl3/2AaqQxSoZGZBfCC+seHo5WBRWfJTVo26M+pLYSWetrEIQq4nFEZ0nFhW2sfub9Pf3yOZLBOV5rFfEWi/xpEnaktTvJc0GNhLOQQmDSPHg6Tbf3XtwHglsGhbLMBxiPY9Gs0k+H2DXnxLe+x5/2EOsYIIALlxA3foQxCPq7BM1t7GdHtlCmcriJVS5CEEASmFjg3jjzXdayUv39vYoFkto/RInuQAY8AOKxRK21cDUy1jlv/hiSapwdk2LCLWVFaqrq+hsgDEuA9UL9TXVqtofx+AcoRkmTzZDiENAQc5PIn8muupiwxMzw0QdIisWsX2i7hO6zacU6lfQmRpWBxgEsanmefKwilyLysNYwYoQGWh3Btx5sMa339+jVqudbwJLrUitvT0WFlbZb+1SUAZpruP32kk4BqiBIXryGJvJYPyA/TAiV6uSW7kA2TxavCSJp4xOGZl6xsQzX+IUz+WSdN4n184fghHwSgWam+uUhhHqJevkTukhlcIr5EbbRI3zAhwTNhnkpH3ux9E3GmB3YHiy3WVrt0u/H5PPBFxfKnJlPoOoCXOMtYiaYGUtSDwgo3tEe/dodQdkFm5hM/MucZCEs/eJNWANxjrWPQR6/Zg7a02++uERKurw1x+/x9ULi+ebwEAwcYSvfbxBTH+7gcxlCXstAondPBnrFAOxZtBokb95i2qpAqKxWrvCC8qdPyMPijPM8XacsqLPaQGLQhFDNkCXq/R2dink8ifKx/c8pORw2H/h+bA2xpoYhceJDOBngP0Yvn3aZGOrjSWDMZru/gA1aFOUeRbmi84hxiZyonXykRHwtUHFLQabDwkjKNfeQbJ1rNJYIpR4WCOJ4moSgjUKRLPfi3iw1uTbOw8oFPL8/N0LXFiuUwgUnjqHSg4mzgxjDINuDxPGqGFMtVJD8hBZS5CeoqlwKaByBajOMdCe80yX9J8SraAVpvwXD+vdXwphOJyqsGu2+vIAACAASURBVPJiSCWECLRHfnmZnW9uU1heSXieZ7qpHK95O/3nSfva2d+n196jXi6g/QDfWrA+SMqApRq6VGE0S6Z9sXEcPAya3ZCNVkRkA1TiNGCA1iDi6W6L+bnCRJ/GLJ7FYMMmcXMDO4zI16+icnWcB0wa/+CPPPHSCMCU2e4bj+3tBre/v8PWTpufffxzLi6VKWUtSotL9c45JDCFGp2qCoHIkjGKXq9LbXmJXEGI1h5BGDmm2wpojdYBulQGE+F5k65K7mXQKLFHCFyncwIXCsVTaccFcSZlSwOPYrZAtNdEL9TcaSp2Yns++wY5bKKWl77B87kMmUgT7d5DiLBeliheQeUqoDMTpXGdwsbFFOhRn12E+Mn4aHvgZ4phBGHsg7isjaKdhm+o8uzFLj+jq/0laKtRVtBEqOE+4dptLD6ZpfdG4UWQpq8Zx1IYnIzlNNSGje09/nz7CdubW9y88ja//uufUy4EiDVuj6lxT88dgU1CgGF/yHAwJNIRKwvvoLOCXVxiOOgSDAWUJfZ87Hwdb3ke63uMHFsPaJxf8ux/LnZ3dymVipwO25RcNUrwa1U6rRbluZoLdhyrLEafnEIqb8CBT46bPfT5E3RX+QpVKUL5Xej16Tf2iHY2UfoJ2WyAV6hBUAG/iDhDCTAuYOfE4JPLbLOORm0MfhwT2wBjvYTBNhBH+H7WyVkpF2OBuIvtbRI2HhNma2SrF5FMHpKDXWRkKcEKxGKcAscqegPDt3c3uf3d9xSyin/89cdcXp3HHw1lQgliXwcCE+gP+uzu7bJ0aQUKATaj8N+9gsl69J+ugYC/uIB39SqUKiAeaTrS1A3zVWmPl5eXUUrP4NlfDI49EbxKEbXfxgyGqHzWrZ08my4k2Vln44erk3z6OSiAr8rk6GIHewz2d2nsNshVFslW5tBBFlEaURoIRm7Vp4VKIaCatTT7MDCaGEHbAQXPsljOoJU4eTYOATCDbXrbD8gVi1C/TOgVUTZKWOUDMm5i74qNsLaxy+///BXdSPPLT37B1cUMvtYTxGWd8iP5NcX5JrDk1el2qCzPoQKFVWCqFSjeRF2+jKc1KsiAH4A4r47UIvKqzTJbW1tcunTpdBpLDDqChUyA7/vYRhub8bGJFtRIqg+bQWYJkZ9NtLHnjPsiGAVDz0cH80i2RqbwFp7pIe0Nhutfk8l54NVQhWVUNiDhcMEY7IRp4KRyoDExxlpyGY/FuYB4p0fUh9AotK+4uFDn0nzeKTjiAUQ9TK+DaT0gVy5j67ewKucYwTR18YG5Eit4VugPLX/+4g4P1rf46P1blHPjVAnGJKW10uxdB6b7XBNYFMcuDkspsoUsIjaxX2hEa7zEQGpEjdIwy8T1/qqRz+fPplaZgmy5zN7dB1TmyqhMcPrPOClkLOVqa938K4HAx0c7Y36hSr+7j+218Ds/uMOwPA+FOlYflFePz6eOWUxLrxchxuPGxTmGg5BoGBJkMlyoBRQ8nJY5DjHdBvuNFoXaZaQ0h5U8vnXS+aR1a6pHqRHaE/7h1x9ycanOzu4en376JaV6jZvX36FWCMhJWof78GF2JgQ2yg34gpttZFmJLd1mi3KlRKFUwFqDjS1KaRCN0mngZJKqeaLw+I+hOR4OBxhjTj0RjAWkkGcglrjTwfe91HjFzIEKIE7BoEbF1o+y/M1+63i9SpQWydFtU4Os8jDaR/J5MtkYFbehuw29Jr2dR8StXbzyApkg6xJ36hzWpjn3U1+ndLOOayILBusYPkBo9SO2tlrMl6ssVTUZ8RCbc70TwBps1Cds7jDsNCjNrUJxjtD6KDMR+Ipi1vVjcbZTpaBWyvKLj65ijeHB0z0+v3Of//67P/LulSvcvLJINesnypHpNjwzkXbrZZHSUxzHibraqdDTXOXHUV9bxpUq7CCis7fL8sICOsg4i7sSrFgssRPk7UEGKVEPm1nPOSqM/mTWoFm2Lje2sXXpxTmz2X2xnia3ukR/Zwu/UMAGQbIZZ5z81mJNjLURKjLOLqqOYCXTRz6zP7MwsZmUxhpxLkUINh4fkhbN0KtCuYRX6pMdNDGdPUzzCdgYmykTZ+cgU0V7QZJ9a9KhULA2zUgYYsXHoujHlo3GgGKhwEpZ40vkoq6tQiTCWIWNQwbbj5G4T6G+iBTqoHz8xL1pfER4owNpetjWscIkLoYKxES8s1KhVvmArx9u8umX3yCB5uNry2QmNSQJvDAMnzW7J0K66YwxGGOI4zHxGmOOkaRSSHNFGQHbHxIPQwr1KnEcER04DEZK+HSPTbCHs7fpaWj3jr6Zczl3eoZh9JKyz4FDT8CKRyafZ7i+RtRpY3UZD8FgCO30WAXQcUxsYqyJsGFIqNQL8M0pAR89FiWKKErGe0T+G6PcxotRiCqhy3l0IcQOI3rNbaK9H8hmPLxSBfI1rFfGSBYrmsiC+2aIR0SMoW8D1ne7RIMB1fk6senhmQisT2x9lDXoqMFwf4vuIKY4d4E4XwYUEh+VpGd6nE4kc8SdMpEqciYHUZqN7Sa7GxtcuzDPOys1YmvpRxHeASJ7kaCqI5FuKmvTrEquY3Gc+jA/+1kWEOtOllAgGg7Il4osXLyAVYI+wHo5z2mbqtvGrGFy+szeTi9PYO42Pvz+9vY22Ww28UV84dY5xKpYiCVCe5pcpUprb49yIY+oDNYYjBz+vE4mw5o0PNXy7OD2o/ri2jkKxriqNyIy9i4/ADUqQKGJUIi1iMohOU0uW0LCFlF7i25nH9Pro2SHbLGGzpUxVmOUnxR8V8QWmu0und6Qt5aqqGiI0hasIsZi4gFq0GJ/7ymihcr8JUKvyMBoPDFH8DCz5twZOGKrsDZ2SnyriHyPz75+yLdffMdH713h1s3LKC8iNhGxtRM2PteOl8lkDz7tpRHFEVEYjsr4TBajOy4UEJdLLL/9Fl4xi4iZbZdMCMpY4yKVp/5hFs5KOLMsLi6ObrEXV3bMvjEiLOIZVL2OefrIeb4rD88D76CjrrUQQSYIQBQ6CFDqSAbxpeA4lZhMJjPyDX0WJrkLCxh8JFvEK66gox5m0EC114l279AXjV9aIpNfRIIcVmva3YhWd8DSUo1yTqFjcVm8DCgxDIfbSG+NXCGPrq5CkMcfRSIcdfAdnPPkABVFjDjZyhoazT5ffr/G3Ufb/OIXf8X1i1WygTO2DhFQGpVoE9P1PxslB85/62U0ah7gFTNcevdtV3NqpuLAYqylvd8mk8065Qcpzc2QLU9JtTh7XML29jalUumFDpTnQScLLsU8ntLYTp+4lEHJ4VxTP4aC51mwU3TnfnNRwSmRJcmD/ALay0F2Hj3sIp0G0f4W7G+gizVaVNjs+RRKFco5DSbGxYMZjNWozhZm4x62soxeWHFmm6RgoeOOzITcNdVDZp0MYmM8LMZq1vZC/vjFD4RRzD/8+n0WCoEr3SYCBOjU/J8kQTpTAjs1KEEHaRdnqUGFKAr58u5XNIZ7fHDzA+bzc2TIpqoOErWJK5KGS3ozC+nEHLNjM4lssrrKy2EGE2NdH2OBYqnCcGuXbLHE7FN5fEeIS2Iymr0zp73nPGCsy7SplW+6b6KIdQaVDfAyObxqBVo77HVj7u42yftD6rkuuWEF7SdJaKMust9k0GkRVOZQ5Tmc4sIpYoydvXtSOE9V5bxA0li+xEjfjyyPnu7wp3//kuriIr/55D3mSz7xIHLtJ6n5lJ0ICUrHeDBY9zTx8k6vs3C4LV8H1Fdr/O6ff8v93Xv8x4/+gWsL10D5own1kqyCFrAScXCqlSjUQSv+C2AwGIwy3aoX9nw/Yr6UuJhhAV2ps7e+Raazj6qU4ZDnSEpcEWKjqXef8YQzw7Rqafrpkz03Ex9x7GaAVVkG5Rp78QC/HvJOcI+g/R3DboE4v4yXK2F7baT9lEz1AqZ62XEvkhDwVPmmo8WGGMaZ5RNOp9M3fHZ3k8dPnnDjxru8d3WVrHaODJGJsQdk7cn0Aa/HDXYMCMK789f5Tzf/C7/97H/y209/x+Dnfa4t38DXWaxVxFaSCbfPPMleFqky5yycJxwr5X6qnE9xvk64sUMmX4TMs5QqZzXas4HzJbTJJlfYyLDbiemHPa4u5sh6V2DuHYLIMNi7T2/tAZ7nk1+9CUHFyUsnPCwFSzAyBTjT0k4j5Pef32cY9fjVJ+8zX83izbCVPQ+vPYGBxcPjvbff4+HOY/phnx/u3WNze4tPbv2Ssl/DF53EBx7FBp7OmV4sFmbUZz5dWAClCMol4p0mRJELY5EDRs4XTRt3HmBdcXFjYa8fsbvXYnmxSs6z7vRSGslAbu4Cueo8KA+8CqBB0oDKw4fOrOlID8M0JUAYK+482OSr23fJl0r87S8/oJj3CDSj6Ddrj287fs3T3llcfkNDPpPn59f/Ci/KsLJ8kdawze///M/s7m5h4njCrKhmvE5nI+7u7mHStNlngMkgCp3L4WezhO19V6Pr4KIr5Yju9brAHIwTMZqdHo9329QrJcq+RtAu6FRwRv2gCpll0AtYk1TdSQXOZAmmvYpmvRwslm7fcvvOJn/88j6X3r7E3/zVNWo5j+wocNJi7PPtuZN4/W+wJARcG83V+tvsrO7waP0+f/vRf+TevR/441d/5NatGyzPrZCjgGdnqPLlGV4OJ8Di4iJ6lPTmdIls8iQUAN8jLudptJvM1StJnNjEh8ZZW6e/9xrAIvRDaDR7zOU8FqoZVzVUGSz+aK3cbW6Ty1tNfH8iAQ7PNpmkxdpbnYg/f/GQRrPFf/6bj1icz+KJYbLVlLhOUlTjNb/BSFSxzhahEH5+80MWS4vcfXSfm9ff48N3P+Drbz7n09uf0hjsORciIsdKJD5Zp3eD7Z7ZDTZ15iYHtVevEURDZDDARRO7eCs7uuskudnMVDvnAxaXEcQpnUa2aGMZGGFrp4lYw1K9jK9crkr3vyT1XAI3HjNRP23C1W7Ga0pANhFxbFjfbvK73/2BuN/iFz+/zlIth2dTr6LpLouk2bfsYa5hBrvwmhOYMOKMFaAhIwHXL13n4eYDWvsNLi6s8t6191nb2OCPn/0brX6bMA6ThP5JEN4paSVKpdKrqfgogFaQy1DKZbFbWxC7MYx9FVKd2NjGc36IK0WqtrGjy9Yg7LV6hFHIXL2M7wkYF6ppAeczGANxYklLN/lhHelMAhPBRAZjLINI+OHBU/7t089ZnC/zm09ucnGhgE6zTUzZTRPb7sS82imCmr2HXnMCOwxjYhbq81x9522+/OEz2mGLy8vX+LtP/h7te/zff/7vrDV2ia2HESEWe2qhLSOfvFcItbDI9tYWtj88tfRzrwaSJM1xQZLEERZo9w2t/X3m5qoU8kEyn47dTeUoO77LmTo2RDj6GEkdxiAWxV5nwO+/us+/fPYDS6sX+eijDykUXZpydZR+aOSG8lNiEQ9AKY1CcXP1XZSv+OzeV0jks1Ra4lcf/pIrF6/xpy//lT/c/gPtcJ+QEHMCrdCzMI4ieFU7XSDIEpRKmMYOmHFs0yic5RSjJU4dVqGswreCMrDXHvJ4Z59KrezyX4K7sSRlC8eMcmrpG9/NzyIuEpsY9GJYa/T47Z++Ym9nh//wq5/x3ruXyQRqrHhNXilzYycvx2c/5hD+4ghMxPmOlfwSf/XBX7O/3+fB1iOsNZS9Au+9dZ0Pbtxkd2+Tz2//b5rdXYzEnIa6LZPJoJQ6VuTAqUEpcrUadr8BcTQlp9kDSo5zhwnebRArNnYa5HIBlVJurMawCUuYuDmNCWt8k03daDJuOoXgamwPhkMePd7g03//nFI+y9988iGXF6sUMuOA3UkcLJLzIkVz/uIILIVCsxAs8e7qLf509w+0+w08K+S1z62la/yHj/6GfrfNv37xBzaaa6Oc+Af90mZ7qTHx2TFarRbW2jO3hU31Q2uCchkJB0TdDlOJs47hfPujIulbaOHRXh/PD1gqZ9GSSjiGaZ9Sp3iYnvnJK+WId62l1x/yzTff8t233/DO6hz/5de3WKhk8fTk56Zfp4G/WAJDBK2E1eUFyvkCX/zwOY2wQYTBWkUpX+GXH/2Gxcoy//r5n/ni6Vd04k5COKldaUxGZuJnjCUmJiZiJGRbqNfnTyHx6MlgMUg2gy1U6DeazgE2cqyqETVhgD7qqHgVfZz9MsoSWdje6sFgyKWFMjnfJXjT1oXhO8ckD8RHJwE3aUIjpydNGcV03eLkpxvrMLJs7of8tz98yb2NNtdvXOfm9ctOzlIkwbt2JFod1deDr4OJwp1SZPTb6P2/XAJzOllyXsCvP/olG1sb/PD4LgZLrC1WQSFb4uPrn3D9nRt8/tXnfPvwW3pRh/FGnCSt0TIk56hOQsTHt8T21g7GWMx4fc8cgnVVZObm6bX3odcHIhewOuXRcL6IzABDC439HvvdNqsLJfKBcvk9rJ1I5pN6xLuAURm9JoeTXjuTTxTCyPJwvcHv//ULQPP3/+FXvPPWCr6nE37FTOgDbfq1aRlsxmv8hAODmyGcvf6G5pmwmMTZ08On5Jd47/r7PLj/gCuLV8kX8yDgo9Dic331OoVMgc/ufEprb5df3PwFxVzZnZZJ8JxJ2BULaJtxKtzU5y0Rdaq1igutOaEg/DIQBPECKHnktA/tfWymcigI89zBQr8Xsbu7S71WJp9PE5Pq8Qd4tpF4CgLj0g4QxZZvvr/P53fWuLSywMfvX6GY0YjYJFTGjp5yRPXqU8Ff6A0mqMSyb5KQuWur77JcX+GPn/2BYTggIEBbHxA80VyaX+Fv3v8NSin+x6e/ZbO5RRhGSVpY106jt8d68yk7nS2GDDGJij89wIbDwfiee0WXhWNtnORdrNfZX99MtInnz+oFjOWu0LC9tUc2m6VUzs+s4nk82hrfXrEVhhb2ehH/9s0Dvr7ziF+9f5lfffAO5axGJ04FY+VI+v1THN8B/IXeYGOoxNfQVwE3rtxg49N1nm4+5drqu6MQFRGFxmOhtMAvfvbXfP7Dl/zu3/+JG1evc/nCW0RxyO3Ht/nXL/7I2tYac/k6v/74b3nvykeU/ApOOkhy9cUG7alX5mfrTn13y1IpEW9uQLuLqp1+pPppIIotSsHOzh6iFEtLc3iJy+TkpXv0zTWpM594TxTGwlajwxdf32EYRvz93/2S1UrmQO23VLKebu2s8BdLYFYmAy0d8rkCH978kC9vf0m5UGapvIImUSMlC5oly6133idTzvL5t5/zqPOIgerx3/7lv7M32CNkyOPOQx7/z0f850GDf/zgP+GrMgCe9hCVqsZfDYWNWRABD3LzdWj1UJVEUXOEbPAsHNx0pzGS0awoodnaJwwHLCwsjlOn2enPzm5kgi1I8xBap60YRpbvHzzhi29/YGn1Ar+6eZVKVk00mEpcyddHbvQnYEOfi8Pr/hfKIk74F04IrcoqlqrLVGoVPv/2c3pRF6tSvbbTT2nxKOocN+bf5e8/+BXdnQ3++d//H1q9HayBoVhiD3Z6O3z67Z/o9ltOTrPQbDYmEvycDZ7FeRoleIU89PrYYQ9I7XGaSWfYmY2SFAaNoT2IafciOoOIEOeYZCeUCKmSwsCoYM1RuZoAxERgnWZzpxOxvtumVqtSyGg8ISnlaly0+VTKtoOdTJ/i+ElrhSgS9juW3/35Lv/25XdcvXKRT957h1J20lFsnOrG5ah38ctKVKKZHOczO87rSPE2rXyZTFXMX/ANNhPiUh5/cPUDfv/n33P7/m3ev/o+Hh6+9kcf8sTD0x6F+iXCdz/idz/8f4iN0SgyscYYg6c1u61dhsMBuDw3LC0u4nkam5ZKAuQUNR4pcU1prxhvSFEKKRYJ9TZ20EePa+88u11xYkw7ivlhbZ37a08Z9Hos1au8+/ZFavkCRT9zZDvPbt51wMSGVj9ka3OHWrVMtpBLUk6PSXN8kcyar0RBb2JcJRVFKIrd7oCvv7rHzs4mf/fLj1lcKKOS6jrTvUgkLpsqNMYVK0+P10gILFG4CD81AsPl5CgFFW5dfY9//uyfqJWrXJy/NPWZ0ZTHHiWvRjmo0mr3USIoGxDGTg3unD/H5+Tu7g7ZQhbf8zlCoXtGw7KMfPVMjCoXaW5uk8/niK1xi/yMLhigE1u+ePiQz+7+wN6wB9ay2W3S7jT4+Y2bBLU5Mi+YVsEC/ciwvdeiXspQr+RdAtmJUhDTNa2PYLFHKnmILHz3dIvPv7zDQrXO//G3H1Ou5Ig9Tchs87NTCL8C1l0GCBnEqr9cFnEWnHupK6q2srDCjcs3+PruV7Sjlrt10mJ+6ZJoDy8/z+Xln+GpKrHyiZWHFY1SPhcvXiKfz5EaN8uVcpI67gWc1l4WqUyhNbpeIe71kd7gWEK8BfZabR4+ecwgCkEpxNNEYlhr7nL36ROGmOeyggfhEtBa+kazudfG04r5coGMc9WYiCaG58+VwdohsYnphfD9wy3+92ffcWl5kY/ff5tKtQja3Rc5xjeH0+imeSynr/PTdmezaER8hEzyRvhTIzBnIBYUnvK4+s41enGP7+9957LgTunWHVORCwr88trfcGP5FgVdIIoGaK0Jgiwi4qpaxs6jo9vZByzGTvo2vkoiwwkJvqZWn2Ows8tM/feMr+31OrQGfWIlI2dxA4TWsNNqIKJnJcJ7JpRSIMLefp/eIGKhWiQIfBgZko9LXE7esuKzH2r+9OX3fHH7Oz66dYVPPnibetEfJZr3mTatT2P60HvZUr8zOpnsoxgbteg0fvipsYhjFkFQ5IM8H3/4MT98+wNPNp5wcfGic0KXMX+eEc2tpeuU/7HA548+5VHzPvl8BU/7PPj+Dv/rX/4Xf/fR37K8sIKf8Rnz9qd/ix1qSeBw6ITFKoUul+ndf0AmjWS0blyHciyl3JhW9E3MwEQjT3yLK/BtRRKt7NT9Pmr2INxlYYmBZmdAqzNgZWmRgp/IpiIux9cR8unBiGGLU8A8ebrDv397n1gUH3z4AZcXC2RUiBKPKDGVSFo8baKJg32ebvkF1kcA5dJqj7L4WoAIsX1arW02Ht2m13760yOwFAohIMM71Wt0l/r88ds/USlXqBRqTBagEIGM7/F2/RIXa8vE1hmuLbB+aY3/8af/xv/5x/+L//Lr/0opqGCsxVNpLeXTx2Eim2RCxvJMVMzjrV5ARTLB+QqxGm+rdPE9YLFQplYo0dzdwstqlE28LLVidXGRLAqVtiPTYY7O2D3Wrplk4hrdiPt7PS5W8pSzGldTbHoMs25FO/HTAL3hkLW1Hb754h6Vapmf/9VNMhkPrVKHYFA2UcJPKY9l1I5I+vdBrc8kp/Es21va08QDUrzkIDFAiDXCcNBka+M2T57cppiv8u7NXyP2DOIq4jgmDMNxOuVzjv2wzb/8+z9RrtT4+PrPCCSb1CGDQ4SSHFrGxkRE7LX3+ONnf+D++j2uXrzG3//q78l6OTw0Cs1U0fVXBAuEcYTuh6h+hFSLpPEYiWOKu7SSDxuBtU6Pf/36Gx7tbNExTk2Q9YS3Fuf41fVbrOTLjuhkmiisNfT7fXK5nIv1TUxTuwPDw/UdysU8F2sFkgzT4ztDZhOXw7i2c7s35Mvv7rK9tcsH199jYaFKNjMuMq4AbQ+bRlylm1kTf9RTj0NghlRZHw4jQOFpg40adPbuc//+90RWc+niDeYWLiBe5g2BAVgb0+js8f9+/ls+ePsmt5ZvIuIdTWCS+CYag2d9dnvb/PO3/8TDBw/5zSe/4crFqxR1CQ//hbmQlx9TWnHReTmkfZgK/kiG1jOGzx8/xBcPLwi4v7FGZAyVfJZ3V1dYKJYJxOXfSrfySEM3IrD86P0ohnvb+8Q25up8iaw3W9Q/eqvHxFbY3mvz58++xgtyvH/rGov1/7+9M21u5Djz/C+zDhRuECDZvPuWWpbUki3bY8/GbkzMRqzn3X7R/QQTMY6JjdjxyPa0PfI1akl9ks0TJADiKlRl5r7IqgJAgq0mJbalMP4RVItgoSqrKp/M5/w/pYnGFmTZHw4zYo9iBqfG11z19S9KT5AZGfRogNEhg0GH5v42vfYTGsvL1JbfI+evg3BBxHMBA8BApEb8fu8PbD99xj9+8g+Ug7rN2p4RVTRioruKMGihiUzEL3/1Lxw1D3lw5z0+evAxgZP/qwkYpMFOM5OYTgNx0snm1dEhTw73+ejufSq5AJ3sQhiDYwyOnI4YTStYmnAYEgQBMRAZwd5hnzjscWu1Tl4mSbwz5vrkVFfaXgdj0Frz8qDDv/32M+oLNX728QOqRR8tdGKfjU8mIWkyOB7VeM59GwI2foFZNx8zYth5weHeH+j12+TLW6xs/ZBcrool8YE0w+Rv1gabhBEgXZf3196l3zzld4//wM9/8HNyrn/Wl5xgbDZb/d8hMC4/+/DvaXdaPP3qKWqkrb/4r7i+WDtrhsMg+YkxtLtdDvb2eLixQd3zbZMJY1DC9miTE44RmQRp09aqAFoblFIopelq23VyMOhw+0aDQE7Tp70OrrQRsUGk+NOXB+zsvOKHP3iPO1vLeBLG9czpXUx6A2dd5dt88AZjYoajE6KozdHhCzpH+5RLdbbuPyQoLWFM2tbXJcl9yX77m4d9XYKAgAf33uOXv/pXnu8+5d7mfSQSIxMD2ozX8ZRPL/1EIAg7IZtLm6w11snlcn+luwGSEK6cEetOxywBozR7BwcsLy2zWK4htCH9ksR2rtET92kSwylSMNSKOI4ZRSO6p6c4bp9QO2hjWKzkKeY8q4K+JhAkGcfVIgPDUPHbR39kr9nnkw/f495GDTcJK9qQ9PkOZ5M76/mnMAtvkL+RhWsUEKKiLq32Pq/2ntLvn1IsFtm89S7F4iZero4QDoJRcjfJgJNGfHMBI51TAi0cKsUKP3r4kEf/+Yh6rcFiaREjNOM6pTGyLG0BCEPO93BdFy+LPb0N/fB8UlA6KCWmFZ9kys7vYQAAGjtJREFUc7Ls0wKOj45BC+qLSxhXZseItMeV1gyVIYo1w1FEf6iIlUEbS5gWxzGe5yLcMsVywJLvEDgGVyY877OILs4MVQiblbF/3ONPj58RDmN+8d8/YqFcsCpjoizYU10kreevMy6TnT5KTq40E3/I3pTRoEZ2x+od0z5+Qvd0h9P+CcXKMvfe/ym53DJa55BObqJpyGRj+rSry1zApmAnleBGfYWVpRUeP/2cygdlfJLSjwl7bLIKNtVQYh0T63ii6eBkg57rHPX53yVMjM9ONYFAG0ls4KTb59VRk62tLQSC3ijGINAGuv0Rvd6QwWiEcF0cATmhKXoC14NckCfIF5EOGGUIw4hczsV1xURj8TfHcBDy6D9+z8rGTW5++IBGybGLl/lmz27W0mPSmEWm8luFWeOCidHRKaPuNke7X9HvdRB+hYX6PTbvruAXagh8wEWnWc6Z1jq9qKooZjAczp0cwNSb0EIRo+gOTvn00b+zurzCh7c/spTYQmciMwvPnj9nbW0Nz/Uyb1OqPl772MXZ/0+4KbC8HDrxAI4MtAeapy93cF2X5XqDUb9PNBoipEBKBz8XIKXE9T2k5+BLQSCh4BjLZTHhtTDGMApDfD9nS3Uuc6vJeEdKsXfUZmFxAd/NEo3O398lMM1nPD5ZwsKIMU7iwAqBIb3TE3qdFkdHe4yGpyw2FqjWGuQrq0i3hiQ/3pGNIY4UUkqbrZLSnghAa9rtE3Z2dnj69Ol8BwOmJqfEwUNSy9d58O67PPrDf7C+tE692rAcHOaiYkrD4kIDV7oIJrM53hLSBT+BSPSeSCk6g5D+KGaoDEM8jtp9eqGhJDx6IeSDEpVKEc8VeFKQcx3SJp2TNlu2F07cljFWxXOTXnRXuWPfcdhYqU8vXNcQp7dvxEASlNZqSOv4Je3WNv2Tl/iuy2Jjg3zlHYLSCsIJMMLubiKJ8aVnEtj+11oYhLLFtu12i+fPn3N83ERrza1bt+cCdg5mvOesLq6zsrrDZ89+z08/+DvKbiU75jwE7ZMWxULhfK/ia5YzrUmIdgxRpBmGEe1RxEhb14COI4TRICGMezDs8v7GJgulfEYTnXOAJCl20qXuZCI2vo3p2xHTts0VMVVg8m1RLc+AjkbEw2OGg132D54wHIZIkWd55QMWGmu4QRlkHo1nHUUJh8dUtCYJJWijUSNNu93iiy8e0+m0KRaKbG1tsbKyQqFQnKuIGWY8hchEdMI2/+/R/2W1scb7d98n7wUIM6v/lOG006FYLGVJrhmu+RkMI83ufocoHNqdRwiU6+PmfHKupFIIEBKGUciTp0+5sbjEyuIi3sQtSMBobdUqIbP0IpnlWcGkaGUWjDYMhyH5/BXe9dQi9CbTMD1mdtvcLBBsBJFWIK1KK01IFHUY9E9oH+3TPNoFRtTrdeqNdYqlG0i3DiKpeUtaJE1pp5Pybwzd0x6HR4fs7u5ZwSoWWF9fZ2NjA8/z0FrjOM58B8swY244eJRzVR7e/5hPf/8bKvUaNxdX8WWAMOcfXavTJl/MYwBnKrJ6XQJmUFozihVDBPWlBjnX5ur6novjJNaf0oyEYO/4kMARrDZqOHLcIxmTNlZIcx9S23Ey7jT57znf5NWGLy765aIMxTRVacL5MakWTyQPSyKMHhCFQ5qHLzhuPmc4aFKqVljbWqVcXiFfWEU4RWy1tzNeCBN3q037EmhtZU5rTa8X8vTJEw6PDuj1emysb3D/nftUyhVc17FFr1LgJu1l5wL2GkjAFy7rjRts3t7gsy//yI3qEq4/y2kPxWLR9mZ+a5t2YjwKEFISBB45184TlzSYDB6C03abXq/Hu5ub1sOZ9Q+bHUy43GZ0DQbTOaSW4NmBpQIuMcqqt1rFxL1t+q0vaHVaNNsDvHyDu/f/J6VKDT9XAO1gcEmi6cmpzPhhTOQXxErT7Q7Y3tnh6KhJu33C1tYmDx8+pFqt4PteQn9iEuLZ8ejmAvZa2GiKkC4f3vuA9nGbz578mZ8++DGucLFqycTRaROJt5geJaREG4UUAifpJJvOj3Q6duMRL/d2WbuxTLlQzIQrzUWZHOp3W6VPPZcAZmLHEoDC6DbhoMnR3guOm0eAoL64zMfv3MHNLaCVb481EpMlA8vpDTrbmA2x0rQ7XZ4+e87+/h5SSu7cucNPfvwJQmJVQDfJVpHjEPYk5gL2GlgPkkIjKOoCP3rnIf/8n//K5tI6txpbE5uAfbBhGAJvd5JmvaqMntJwNCC1taue7L5C+h5L1RrZjjdhV71BTebrx/BW7vd8WY5VkUeMhj1arZd0Tp4x7O2yVK9x8947yPwWQZBH4KC0SVoTCciCFgljcHpuCVopwmFIs3nE9vYOxycd6o1FHj58SKOxQD4IQMBoFJ3brWZhLmCvgQJiLImpkIZqrcTD++/z4qvn1L0FyuXy1PGlYgl4+7uAbRQ37YCQxhrjx6cdev0e92/fxXPGuYHWIQDfdKtNufiv657Ps+7axSSOQwaDHr32F3SP/4xSHrX6bW7d+gleUEY6HlpIlAZjbFfKLBvEGBApXxaAizHQO+2xs7PDixfPCcOQtbV1fvrTn1CpVHA9N+sIlSoqWaPL14zfvZ42O+MexW+7Id23CSEETkLsZYzGJeDeyj0+/epTHn/xmB/98EfYsgiLw8NDSqXypHlz7dAm6QuTmBIuSf8HYTg8PeH5/i63t7ZYCAIrdKR9hk1WjJupWWdflTjbxTH7A9k3hX1Ol+9Lneb62fON298CY9Z/RNIT2VaHKfRon/bJC/b39zgdOuQDn9Ub71Nf2kCIEsgKNrhgeSEdwdQ7Gg/aSR8go9GQx4+/5MXLF0gpWV5e5v4771Au27DM5BQev1szYapdPMddfQ0N2pTSSY8s/daaIFwXUq+aXUc9Ajw++egTHj16xP7+PisrK9kkXFhYSAhWtC0nz3B9TfBs1brJyvyVsnwXnXDIdvOI+vIy9UIZ14BR1nVtJhoOjl+PPDdPzBsIGFjvmlLqku1zDSLpzwwChWOFTIgkDGL5CzEjjI4Jwx6dkwN2tx8hzCnrG+ts1W7iBWs43gIZ96GBKf7Eifs0gNa2nGQ4HHB01OTp0yccHTVZWlriw48+pFatkksyWZSOmbXwGGNQKkZKYcf4OgGL4/gSD+XNYMsXLvvAvy8wBEHA3bt36XQ61BZqyMQl32q3CIJcUk07xsXVtTPOftkVyREMo4gw1gwViFHEKBzyp90XlIOAW7kyhCPCVJ9RirOrXurYPu+fezMBi6LIfnrJbdsxKgkPgCZOatAkjvGIiVHqlOb+X+i3XjAa9PFyNW5sPKBUu4HvFskZg4oEQxUy3lEnwwfTLGHGGJrNJs+fv6DVahFFEUtLi3zy40+o1WoUCwW0NkRRlOxSF783O7/F1PlnwfV978I/XhVKSeJY4Pv+1x/8PUOqHmxsbKBUjOO6mY2Qrn7TNsnl7JPLypdGI8MY6TjggiM9jo8OKLket1fWyHl+wi1jPRlCzFpxxZmG38lYMBcEgMcClo7XJhXAmy4k2VHapi5hNLgSwwgVvmD/1XO6px0GYUihUGd9/X0W6usIr4QROdASoSNcYRnCpmLWQqC1zcUUwiGKRhwcHPDll1/Q6/VxXId79+6xtrZKoVDEcdzUMLX3bM6O9Pw9jUYjXNe1OaqvaUHsXo8/ecLg/k67fa8KkyR6+lM7jlL2QQshEHIyyffNd/JLJ0NkLEqGSMFxq8VJ95T76xtU/AAjBc4EL8hZxqaJK8/8ZLa8n7fB0vd8qfdtjH00akQc9xj1uhwdPOf45CsKgU+lssx6/QFOsIjrlhAyh10MEuPR8bMHljpuTJLGpJSic9ri8PCQF89f4LgO9YU6d+7cpVqtUigUcBzHxi3TexeJFTh1C7Pf3bTdefH7nXsRL8IlcwkNEI7C7MFnzQm4nNBcxSmUnr7XH/Bie5ubmxtUS6Uk2Dzhg0/mzhun+l3b2mg7UWo9Io66HB8857j5JeHwhFKpzObtTyhVVvD8CsggsWdFtstYemq7sKSECOlzC8OQ/f199vd32d7exvM87t69y+raKtVKdYbZklpnr1f1rgr3OnYYu6J9/+wvw4RGZExiKyerrDOZlTfxzCZW0EqlNnHfV1jRv2Zs5xQRAbGGUCni0YiDTovNlUU2F2qJxxCEMOP7ylS4GerghcO8pDSa6V+tH9syMNlq3witugxa2xwcPqHf7yJljnJ5jfX1DymV6jhBHfAwSfXC+Zk0LpUxxhCrmNFoxOPHj9nd3UVrTb2+wMcf/5DFxSVKpVJSn2fOLWDWKzhW598Uk+d53Tu+th3s+6gaCrA2wTCCTheiGDwXygUoJPVOXKxmdbs9ioWibQBhps76jWGYLQRaCJTWHB3ssdQosLrYwBMCnSwH5x0XF43nIlvrzUcoZlLUCUCB6hOFfQbdJs2DHbqnR/iBoVFrsLC4hRvcwHEqIP1JjW28uWS78Dh7ZjQa0Tk95dnzZ7RaLYSA5eVl1tfXqVareJ6tMB+HjC66p6u9ozfRNuYqIhPZbAZMbwh7R9DuYpRGeC7USogbi4hCLlO3Zz3aajVVQb4+wv+tITHoK8UiGyurSDlZv5wcMpkQy3UoQukUHYFRyTOybneAfu+E9uFXNHc/JwqHLCxusHH7IdXGGlL44HhJXOpMIu+sBUVr+v0+h4eHbG9vc9rtUq3V2NzcZH19jVKpTJrCNmkbTsbp3mZsdi5gCaQB+kP0/hHipINUiZMijNDNNtoYnNUlCDxwZqu/BwcH3Nza4pskI16085+to5YIlFYcnpyw82qXW+u3qAQB6d71tmF3WMeqyFqgoxN6J09pNp/SaYd4uSq11Q8olxYpl+s4bh6kkwjC2TQoMaEPW+7eKBzRap3wcvslzaMmw+GQza1NPvjwQ4J8Ht/3M/tKiPNFsZPP9W1qV3MBg4T/AYgVUa9PLjVaEuNaaEPY75PXOsm8ni1A1WoFKSU6yXu7tvQhrUFKhsMhB4eHFIsFXGnproUQma34dpV0A6pDf3BCv9uldbRHPDrFkXDz9nuU6jcRbglEDkthkOykiedOkrjrEWR0BFoTRRGvdnZ4+uwpo2iEn/O5e/cua2tr+DmrtgsprzVd65tgLmCQCZdRGqWVFaJEb0zVx7RzpQF0kscnzpxiFI4wxlxbgD0TbSmIlOLV7i75Qh7HyeFJmVVdfJNpNmG6w0TyEkmmxNgkMtiEWQ16wGjQ4/DVZxzufU4uX6DWuEmpep+gcAPHzSOFQQiJwhALJlJthd3FzFip1bGi3WpzcHDAV199hee63FhdYXVthXqjYQP7icMmi/F9RzEXsBSug8h5SN8nGvbxhZOQBtmJ4QaB5WxOihLP2jIi8VBdl34vEAitcaQk1JoXr7bRxrCxssrB3gGCCEEA2Fq1qXCyGNthRsxWIIURWf8vlZSySMAzCe0ADjGWjNQBpFJo1aTXesarl58ThQovf4PbD/4XhVIJP1fCegKTArXElS4A1xhcMdGDRgi0EfS6PZrHx2y/3KHValOpVnnw/g9YXFykVC5OL1wzCWG/e5gLWAoB+D65WpV4OELHlkvWtqkx+OUSxnMJjcITgonwZIZisZBkEegLd7FLhtemIKVEKcVu84C94yY/vP8egetTLhXxc+7UOS92ZlywAEzaKIx3boPtCmqwhZta9xj29jjafUK7fYpShkJxmXsP7uLmlhFOZdreSa+aCESmumbknoL+YMCTJ0/Y2dmh3x/QaCzys7//OZVKJaHAO29TnYsGfEcxFzCwb0kbcCRyqY6nNKrbQ0Uxfi5nswMcmVUxX7RHtdttSqXyeeE607PqSjZSUtZ/2utx0GyysbmJb5scs1Cr4c4Q6MtcI70nmVzLMkRpBBrDCFTE6ckxr57/iUF/m0IBVpffp7zwAOE1cPNucr1pr93rdnQhJFprWq0W7Xabu3fv0mg0qFZrSZ7fWDDPVih8F+2tWbg20hulFJ7nfT8eRFYqLjJ7DJUoWdLqTYPjY4JyCVEpMl7fp9FqdbJVN3MJa02/1aZQKmEciXGcTMAutbppQz8c8sed59QKRW6trCG0pcgW0kFKpnZVPbljTAz1IhUxE0djVWJrf4YMunuMTndo7n1Br3PI0vIPqCzfxiktEOSKIDz0yCD9XKYKjh/rm5WwxHGMUirLXZ35nas7Zq8Fw+EQKeXX5tvOdzBgcndBAJ4DnpMRt0pjEL5HHI7wdIFp0vcxOp02pVIJ1x0/VhXF6FghXBej9YTqdTloDM3WCUHOZ2NlFU86WddJxGWyHWdBoLRAECMYIEyf/mmTg71tWsdHSFyWl7dYv/0xufwyItewAWEAo9EME9q1aQl408XVdd2pZ3bBEL+XmAsYTL28WSlJRghy5RK95gmeNjN1LwMs1BuJ2pN4GQ3Ew1E2eWTC33AVlUELCAoF7paWyMnktSUey9mJPiIrNRFTn44/T9x3CDTSxESjU1rHLzk8fILRIcVCgTv37pAvbeHmGuD4lo5MutlN2DJIF/cSJTl/S5gL2BkIZjEegsz59vPeEEoBKrERJlfpTq9HPp80LQCINLrTw62VMwNCzpbP6QHMgCskjUrVqp/poVNetYnvJv9vjD1Wi8kEKYHWtu+Z0RFahUSDQ/rNzzlqvsLIPNX6JrWFTfLFBo4XIISLSSlIpUy4E5NLGdDGIS12/D5YBG8TcwGbgbPxrRR+EKD6A5xicMH3rHtbq8SLqAwm1nieP3XSq85BeYnZK5IcZdtrWpB1BBOCWHcRZsBp8znHhzuMBn184bG+8RG58g38oA5OwWZa8PUqrUnb9syF6xzmAvamECA9DzUIZ3IiAgT5vCVXYewsERjEVM/TiS98W+6lGecRaIRO90oDDNGqzTDssrv7jFZrD8cMqZVLbN69R66whXAXEsFKv6M4n6Q1vgKAEGnpvzv1+RwWcwG7BIQUoBQmjm2C6hmcnp5SLhatmikEcTgkVyhkfBlvD2PhQAvU8IRe9wXt9pectneQbp7l+hbV+n3yxUVcL0g8h0lQWNjGcwCCYIbIjC1Vk2R0zLb45pgL2JvCgHA9hOOg4hiROy9gCws123I11uA6aK1xg4m2N29z7okYFR5y2nrFwd427eMOS0srrN/6bxRrizheASGKmCTbQgjrlbREdYq0fsuY2Tzw420zzfmYC9YszAXsTWFsIBrfxShlexkzXaO1v7vPrZtbln9QG1Qc4xS+vYmXkYuqLqhB4pEpgZO3fyepABAGNejz4tkXdE63WV9d5869h7j+Mnh5ex8mzsZuLbQ091AnmqyLMc4FZWLTfslMwMY8cHMkmAvY1yCzYgQIV6LLeeJ2Fy+XB9em8JjEs1ev1XCkTIo2YzsRXTE16fTkeS+Ip56f0ybpfhJhwjb65b+jmv+F9FyclR8j1x6C46PIIbFZ9TKosrDyAet3fpIEQ9OKYpEEkZ2JrIvU0hqHvzO/4xt1PZnjIswF7A2RuuMd12MYxzAagV+YEp7BYECtWgEjQWukSDogzshCuExigk3bGyGjQ6Lf/x9O/vxL3PDIVnVUf0P1R/8bc/8XiGQnQ0gEklp9eeIE2Z1wlohzWtAvtwV9n4ll3wbmAnZJOK5LEAToKEKm5DbJnHRdN3GEAFohHInwLnZfv+nUlAJQPfTL3xF//s8s9F8gGaGVITxq0/pDjsLCA4IbRSabcRut7MIwxTkx1+HeJr5/zDTfAXhBQDwaneuZ6rpuInACHY7wcv5r57O54GfmkfEJ3ae/RgyaOGaISIg6HalRrV3k/p9B96e+I9JGgNnJzZndbI7rxlzALgsBIk1ijqdZcvv9HkZb8soojhCe/41iXZPZFwiHSAt01izPyo6DwVERUo05r8zEf+f462IuYFeB54DvEfX6ZAUaBuq1BaSTEmNO7G5m9uYhZvwkh2d/t/45DdrgF8pErsfIcYhSkhgDeAVMYYWxemimryDO/Mzx1jAXsCvASIFyHeJhOKXbNZtHGK2J+32Mk2T7pnTMnOd5nyVgk8nGRitQI1ADhof7SK9AWFymLfIMnTyRKBC6Zdwb95A3fgAiyM47++yX1Ffn+MaYOzmuAG205T5EgNYZy9Ty0hJCCIaDPkEuuFIGR0pepgFhQtTgELXzBf1uj+qdnxGsvUP3L/+C33+FlgGi+i6lD/8JUV4mjUXZmq8LKJ+vetNzXAlzAbsCjNK4rkcowEQRIiHLPD45YdXPEQ1DCqXylfUDYTTO8IDh7mO6+9uUyg0Wbr6HqN0ADNXqGgyPQLoQrEFxFZxxvbUiQuAxu5P0XMjeJuYCdgVIBLgSLUCFI1zfxwgI8kFiNwmE61zN3lEh9I7oPvstUXuP2vpt3MX3oLCYEHQKdO1d4D7SJClNwiMVG40tzrwoIXmOt4u5gF0BMqF1c3M+o+EIt2QpB6TjYKII33Ezmu03QcY7oRXxqz/C839DljaovfsPiIV1jNbJbuSgiFFJZock6XqeOjuEbYXgMrucZo63j7mAXRXCIAMf3elCpDCepNftUiwIGw+TMtPFUudF+m+K8WcCJbDNaovLyJs/wV+6C0MBh8cIPYTKApTqOEZiKTNMkvV+Ni9wTEA9y1NxsdjPFcfrwFzALg3Le26EAdfFFQKGIcLLs1CposIIz/ftziImiTrTb0+eiSQvEJQxuMR4tQa6VifaP+L4018x+K/PiHVE9cFDGn/3P5CLq0jfSzgMdZree04+xKVdgXMBuw7MBewqSGe0AL9YJBwO8EsBzf0Dlqo15EQGx+umrZ3+GonANxoR7xH391C9Fv3fPKL76z/hnYzwHM3o6JjhQZPgn36BXL2J8AvoxPaafY25n/27gLmAXRoiy4TXADmfUb9PTmkalaqlS7uogvkMDDazyjEDRO8Vp3u/Rg12MMMTctUWS/cNx3/s4A4cvL7m6C+/o7J5g9rSKrh5y/0x33i+0/j/y7XXXgPGEegAAAAASUVORK5CYII=;" vertex="1" parent="1">
          <mxGeometry x="70" y="60" width="216" height="160" as="geometry" />
        </mxCell>
        <mxCell id="eAWggMRmdG7QYBiaw9UV-3" value="" style="rounded=0;whiteSpace=wrap;html=1;" vertex="1" parent="1">
          <mxGeometry x="350" y="10" width="440" height="260" as="geometry" />
        </mxCell>
      </root>
    </mxGraphModel>
  </diagram>
</mxfile>
